<?xml version="1.0" standalone="no"?>
<!DOCTYPE svg PUBLIC "-//W3C//DTD SVG 20010904//EN"
 "http://www.w3.org/TR/2001/REC-SVG-20010904/DTD/svg10.dtd">
<svg version="1.0" xmlns="http://www.w3.org/2000/svg"
 width="700.000000pt" height="700.000000pt" viewBox="0 0 700.000000 700.000000"
 preserveAspectRatio="xMidYMid meet">
<metadata>
Created by potrace 1.14, written by Peter Selinger 2001-2017
</metadata>
<g transform="translate(0.000000,700.000000) scale(0.100000,-0.100000)"
fill="#000000" stroke="none">
<path d="M0 3500 l0 -3500 3500 0 3500 0 0 3500 0 3500 -3500 0 -3500 0 0
-3500z m3825 1976 c155 -28 285 -65 423 -121 590 -237 1036 -747 1190 -1360
49 -197 57 -262 56 -500 0 -234 -9 -314 -60 -505 -231 -879 -1023 -1489 -1932
-1490 -820 0 -1557 498 -1860 1256 -92 231 -131 422 -139 684 -9 291 34 540
139 803 271 680 895 1157 1628 1247 112 13 449 5 555 -14z"/>
</g>
</svg>
